<?xml version="1.0" encoding="UTF-8" standalone="no"?><!DOCTYPE svg PUBLIC "-//W3C//DTD SVG 1.1//EN" "http://www.w3.org/Graphics/SVG/1.1/DTD/svg11.dtd"><svg width="100%" height="100%" viewBox="0 0 916 667" version="1.1" xmlns="http://www.w3.org/2000/svg" xmlns:xlink="http://www.w3.org/1999/xlink" xml:space="preserve" xmlns:serif="http://www.serif.com/" style="fill-rule:evenodd;clip-rule:evenodd;stroke-linecap:square;stroke-miterlimit:1.5;"><rect id="Web--Only-Logo-" serif:id="Web (Only Logo)" x="0" y="0" width="915.568" height="666.762" style="fill:none;"/><g id="LOGO"><g id="MENOR-QUE" serif:id="MENOR QUE"><clipPath id="_clip1"><rect x="4.294" y="162.277" width="247.935" height="328.253"/></clipPath><g clip-path="url(#_clip1)"><path d="M23.477,333.945l191.623,115.966" style="fill:none;stroke:#3abb94;stroke-width:50px;"/><path d="M23.477,333.945l191.623,115.966" style="fill:none;"/><path d="M23.477,318.863l191.623,-115.967" style="fill:none;stroke:#3abb94;stroke-width:50px;stroke-linejoin:round;"/></g></g><g id="MAYOR-QUE" serif:id="MAYOR QUE"><clipPath id="_clip2"><rect x="672.057" y="165.753" width="237.336" height="328.253"/></clipPath><g clip-path="url(#_clip2)"><path d="M897.965,322.339l-191.623,-115.967" style="fill:none;stroke:#3abb94;stroke-width:50px;"/><path d="M897.965,322.339l-191.623,-115.967" style="fill:none;"/><path d="M897.965,337.421l-191.623,115.966" style="fill:none;stroke:#3abb94;stroke-width:50px;stroke-linejoin:bevel;"/><path d="M897.965,337.421l-191.623,115.966" style="fill:none;"/></g></g><g id="LAPIZ"><path d="M456.816,466.242l-109.132,-48.589l162.696,-365.421l109.132,48.589l-162.696,365.421Z" style="fill:#75aaff;"/><path d="M575.503,117.714l-135.581,304.519l-48.229,-21.473l135.58,-304.519l48.23,21.473Z" style="fill:#75aaff;"/><path d="M348.02,563.751l-15.985,-111.089l109.235,48.635l-93.25,62.454Z" style="fill:#0db1fd;"/><path d="M348.02,563.751l-15.985,-111.089l109.235,48.635l-93.25,62.454Z" style="fill:#0db1fd;"/></g></g></svg>